<svg width="40" height="27" viewBox="0 0 40 27" fill="none" xmlns="http://www.w3.org/2000/svg">
<path d="M38.4993 3.00075H1.50075C1.10273 3.00075 0.720997 2.84268 0.439551 2.56131C0.158106 2.27993 0 1.8983 0 1.50037C0 1.10245 0.158106 0.720816 0.439551 0.439441C0.720997 0.158066 1.10273 0 1.50075 0H38.4993C38.8973 0 39.279 0.158066 39.5605 0.439441C39.8419 0.720816 40 1.10245 40 1.50037C40 1.8983 39.8419 2.27993 39.5605 2.56131C39.279 2.84268 38.8973 3.00075 38.4993 3.00075Z" fill="#740303"/>
<path d="M38.4993 14.5116H1.50075C1.10273 14.5116 0.720997 14.3535 0.439551 14.0721C0.158106 13.7907 0 13.4091 0 13.0112C0 12.6133 0.158106 12.2316 0.439551 11.9502C0.720997 11.6689 1.10273 11.5108 1.50075 11.5108H38.4993C38.8973 11.5108 39.279 11.6689 39.5605 11.9502C39.8419 12.2316 40 12.6133 40 13.0112C40 13.4091 39.8419 13.7907 39.5605 14.0721C39.279 14.3535 38.8973 14.5116 38.4993 14.5116Z" fill="#740303"/>
<path d="M18.4173 26.0065H1.3907C1.01585 25.9729 0.667142 25.8003 0.413161 25.5226C0.159181 25.2449 0.0183105 24.8824 0.0183105 24.5061C0.0183105 24.1299 0.159181 23.7672 0.413161 23.4895C0.667142 23.2118 1.01585 23.0393 1.3907 23.0057H18.4252C18.8001 23.0393 19.1488 23.2118 19.4028 23.4895C19.6567 23.7672 19.7976 24.1299 19.7976 24.5061C19.7976 24.8824 19.6567 25.2449 19.4028 25.5226C19.1488 25.8003 18.8001 25.9729 18.4252 26.0065H18.4173Z" fill="#740303"/>
</svg>
