<svg width="10" height="10" viewBox="0 0 10 10" fill="none" xmlns="http://www.w3.org/2000/svg">
<path d="M4.5279 0C7.02139 0 9.05169 2.02826 9.05169 4.5238C9.05169 5.62363 8.65584 6.63368 8.00083 7.41927L9.88218 9.33735C10.0311 9.4863 10.0311 9.74137 9.88218 9.88828C9.73322 10.0372 9.47816 10.0372 9.33124 9.88828L7.45194 7.97225C6.66226 8.64153 5.64405 9.04555 4.52994 9.04555C2.03644 9.04555 0.00613976 7.01729 0.00613976 4.52176C0.00613976 2.02622 2.03236 0 4.5279 0ZM4.5279 8.21507C6.56432 8.21507 8.22121 6.55818 8.22121 4.52176C8.22121 2.48533 6.56432 0.828445 4.5279 0.828445C2.49147 0.828445 0.834584 2.48533 0.834584 4.52176C0.834584 6.55818 2.49147 8.21507 4.5279 8.21507Z" fill="white"/>
</svg>
