<svg width="15" height="15" viewBox="0 0 15 15" fill="none" xmlns="http://www.w3.org/2000/svg">
<g clip-path="url(#clip0_1_123)">
<path d="M14.9134 3.13391C14.8275 3.01084 14.6894 2.93478 14.5393 2.92837L5.23466 2.5273C4.9677 2.51561 4.7446 2.72172 4.73319 2.98745C4.72185 3.25307 4.92762 3.47751 5.19331 3.48892L13.868 3.86287L12.1624 9.18455H4.57213L3.20084 1.71797C3.1707 1.55433 3.05835 1.4178 2.90339 1.35701L0.657455 0.474675C0.409924 0.377764 0.130604 0.499348 0.0333908 0.746577C-0.0636545 0.99394 0.0578956 1.27343 0.305292 1.37064L2.30229 2.15516L3.69778 9.75279C3.73984 9.98119 3.9389 10.1471 4.17123 10.1471H4.40271L3.87412 11.6154C3.82987 11.7383 3.8481 11.8749 3.92339 11.9818C3.99859 12.0887 4.12088 12.1522 4.25142 12.1522H4.62218C4.39244 12.4079 4.25142 12.7446 4.25142 13.1148C4.25142 13.911 4.89925 14.5586 5.69525 14.5586C6.49125 14.5586 7.13908 13.911 7.13908 13.1148C7.13908 12.7446 6.99806 12.4079 6.76836 12.1522H9.91627C9.68643 12.4079 9.54544 12.7446 9.54544 13.1148C9.54544 13.911 10.1931 14.5586 10.9893 14.5586C11.7855 14.5586 12.4331 13.911 12.4331 13.1148C12.4331 12.7446 12.2921 12.4079 12.0624 12.1522H12.5133C12.7349 12.1522 12.9144 11.9727 12.9144 11.7512C12.9144 11.5297 12.7348 11.3501 12.5133 11.3501H4.82208L5.25517 10.1469H12.5133C12.7226 10.1469 12.9078 10.0117 12.9715 9.81261L14.9769 3.55596C15.0229 3.41316 14.9993 3.25703 14.9134 3.13391ZM5.69529 13.7567C5.34138 13.7567 5.05356 13.4689 5.05356 13.115C5.05356 12.7611 5.34138 12.4733 5.69529 12.4733C6.04919 12.4733 6.33697 12.7611 6.33697 13.115C6.33697 13.4689 6.04919 13.7567 5.69529 13.7567ZM10.9893 13.7567C10.6354 13.7567 10.3476 13.4689 10.3476 13.115C10.3476 12.7611 10.6354 12.4733 10.9893 12.4733C11.3432 12.4733 11.631 12.7611 11.631 13.115C11.631 13.4689 11.3432 13.7567 10.9893 13.7567Z" fill="#740303"/>
</g>
<defs>
<clipPath id="clip0_1_123">
<rect width="15" height="15" fill="white"/>
</clipPath>
</defs>
</svg>
