<svg width="20" height="13" viewBox="0 0 20 13" fill="none" xmlns="http://www.w3.org/2000/svg">
<g clip-path="url(#clip0_424_146)">
<path d="M19.24 1.5H0.75C0.551088 1.5 0.360318 1.42099 0.219666 1.28033C0.0790132 1.13968 0 0.948912 0 0.75C0 0.551088 0.0790132 0.360318 0.219666 0.219666C0.360318 0.0790132 0.551088 0 0.75 0H19.24C19.4389 0 19.6297 0.0790132 19.7703 0.219666C19.911 0.360318 19.99 0.551088 19.99 0.75C19.99 0.948912 19.911 1.13968 19.7703 1.28033C19.6297 1.42099 19.4389 1.5 19.24 1.5Z" fill="#740303"/>
<path d="M19.24 7.25391H0.75C0.551088 7.25391 0.360318 7.17489 0.219666 7.03424C0.0790132 6.89359 0 6.70282 0 6.50391C0 6.30499 0.0790132 6.11422 0.219666 5.97357C0.360318 5.83292 0.551088 5.75391 0.75 5.75391H19.24C19.4389 5.75391 19.6297 5.83292 19.7703 5.97357C19.911 6.11422 19.99 6.30499 19.99 6.50391C19.99 6.70282 19.911 6.89359 19.7703 7.03424C19.6297 7.17489 19.4389 7.25391 19.24 7.25391Z" fill="#740303"/>
<path d="M9.20404 13H0.695007C0.507673 12.9832 0.333409 12.8969 0.206482 12.7581C0.0795552 12.6193 0.00915527 12.4381 0.00915527 12.25C0.00915527 12.0619 0.0795552 11.8806 0.206482 11.7418C0.333409 11.603 0.507673 11.5168 0.695007 11.5H9.20801C9.39534 11.5168 9.56961 11.603 9.69653 11.7418C9.82346 11.8806 9.89386 12.0619 9.89386 12.25C9.89386 12.4381 9.82346 12.6193 9.69653 12.7581C9.56961 12.8969 9.39534 12.9832 9.20801 13H9.20404Z" fill="#740303"/>
</g>
<defs>
<clipPath id="clip0_424_146">
<rect width="19.99" height="13" fill="white"/>
</clipPath>
</defs>
</svg>
