<svg width="74" height="23" viewBox="0 0 74 23" fill="none" xmlns="http://www.w3.org/2000/svg">
<path d="M18.1695 3.56185L24.0359 0L27.6373 5.84671L24.7799 5.15741L20.5695 21.7254H15.494L12.3031 12.3168H12.248L9.30243 21.7254H3.11091L0 9.68044H4.69255L6.32929 16.0709H6.3844L9.41265 6.17351H14.7059L17.7341 14.8214H17.7893L20.5227 4.13032L18.1723 3.56185H18.1695Z" fill="#740303"/>
<path d="M40.3399 13.7888C40.3399 9.20264 36.9507 5.46777 32.2664 5.46777C27.5822 5.46777 24.248 9.2301 24.248 13.6515C24.248 18.0729 27.8853 21.7254 32.3491 21.7254C35.7934 21.7254 38.4938 19.501 39.8164 16.4527H35.1321C34.3881 17.3864 33.5891 17.8807 32.3491 17.8807C30.5581 17.8807 29.0425 16.8097 28.767 14.9972H40.2297C40.3124 14.5852 40.3399 14.2008 40.3399 13.7888ZM35.7659 11.9214H28.8221C29.1803 10.2737 30.6407 9.31249 32.294 9.31249C33.9473 9.31249 35.4077 10.2737 35.7659 11.9214Z" fill="#740303"/>
<path d="M46.5811 21.7255V17.0569H41.8141V21.7255H46.5811Z" fill="#740303"/>
<path d="M52.0078 3V21H49.8281V3H52.0078ZM54.9141 14.8008V14.5312C54.9141 13.6172 55.0469 12.7695 55.3125 11.9883C55.5781 11.1992 55.9609 10.5156 56.4609 9.9375C56.9609 9.35156 57.5664 8.89844 58.2773 8.57812C58.9883 8.25 59.7852 8.08594 60.668 8.08594C61.5586 8.08594 62.3594 8.25 63.0703 8.57812C63.7891 8.89844 64.3984 9.35156 64.8984 9.9375C65.4062 10.5156 65.793 11.1992 66.0586 11.9883C66.3242 12.7695 66.457 13.6172 66.457 14.5312V14.8008C66.457 15.7148 66.3242 16.5625 66.0586 17.3438C65.793 18.125 65.4062 18.8086 64.8984 19.3945C64.3984 19.9727 63.793 20.4258 63.082 20.7539C62.3789 21.0742 61.582 21.2344 60.6914 21.2344C59.8008 21.2344 59 21.0742 58.2891 20.7539C57.5781 20.4258 56.9688 19.9727 56.4609 19.3945C55.9609 18.8086 55.5781 18.125 55.3125 17.3438C55.0469 16.5625 54.9141 15.7148 54.9141 14.8008ZM57.082 14.5312V14.8008C57.082 15.4336 57.1562 16.0312 57.3047 16.5938C57.4531 17.1484 57.6758 17.6406 57.9727 18.0703C58.2773 18.5 58.6562 18.8398 59.1094 19.0898C59.5625 19.332 60.0898 19.4531 60.6914 19.4531C61.2852 19.4531 61.8047 19.332 62.25 19.0898C62.7031 18.8398 63.0781 18.5 63.375 18.0703C63.6719 17.6406 63.8945 17.1484 64.043 16.5938C64.1992 16.0312 64.2773 15.4336 64.2773 14.8008V14.5312C64.2773 13.9062 64.1992 13.3164 64.043 12.7617C63.8945 12.1992 63.668 11.7031 63.3633 11.2734C63.0664 10.8359 62.6914 10.4922 62.2383 10.2422C61.793 9.99219 61.2695 9.86719 60.668 9.86719C60.0742 9.86719 59.5508 9.99219 59.0977 10.2422C58.6523 10.4922 58.2773 10.8359 57.9727 11.2734C57.6758 11.7031 57.4531 12.1992 57.3047 12.7617C57.1562 13.3164 57.082 13.9062 57.082 14.5312ZM71.5312 3V21H69.3516V3H71.5312Z" fill="#740303"/>
</svg>
